<?xml version="1.0" encoding="utf-8"?>
<!--
 Copyright 2017-2020 Stanislav Pidhorskyi. All rights reserved.
 License: https://raw.githubusercontent.com/podgorskiy/bimpy/master/LICENSE.txt
 -->

<svg version="1.1" xmlns="http://www.w3.org/2000/svg" xmlns:xlink="http://www.w3.org/1999/xlink" x="0px" y="0px"
	 viewBox="0 0 640 226" style="enable-background:new 0 0 640 226;" xml:space="preserve">
<style type="text/css">
	.st0{fill:url(#SVGID_1_);}
	.st1{opacity:0.17;}
	.text{fill:#FFFFFF; font-family:'Segoe UI';}
	.text_large{font-size:102px;}
	.text_version{font-size:24px;}
	.logo{fill:#EE9C33;}
</style>
<g id="Layer_1">
	<linearGradient id="SVGID_1_" gradientUnits="userSpaceOnUse" x1="59.9102" y1="219.8535" x2="632.2845" y2="-15.2968">
		<stop  offset="0" style="stop-color:#2E1E54"/>
		<stop  offset="1" style="stop-color:#B94238"/>
	</linearGradient>
	<rect class="st0" width="640" height="226"/>
	<rect y="175" class="st1" width="640" height="51"/>
	<text transform="matrix(1.0191 0 0 1 121.7368 119.3747)" class="text text_large">bimpy</text>
	<text transform="matrix(1 0 0 1 530.4453 209.009)" class="text text_version">
<!-- VERSION BEGIN -->
v0.1.0
<!-- VERSION END -->
	</text>
</g>
<g id="Layer_2">
	<g>
		<rect x="22.89" y="99.91" class="logo" width="69.53" height="4.4"/>
		<g>
			<path class="logo" d="M93.65,83.66c-0.84,0-1.68,0-2.51,0l-6.49,4.12h7.22c1.97,0,3.57,1.56,3.57,3.5v38.11
				c0,1.93-1.6,3.5-3.57,3.5H23.95c-1.97,0-3.57-1.56-3.57-3.5V91.28c0-1.93,1.6-3.5,3.57-3.5c16.06,0,32.71,0.26,44.99-1.01
				l5.48-4.72C55.88,84,40.29,83.66,22.17,83.66c-0.42,0-2.64,0.04-4.43,1.83c-1.13,1.13-1.83,2.7-1.83,4.43v40.98
				c0,3.46,2.8,6.26,6.26,6.26h71.48c3.46,0,6.26-2.8,6.26-6.26V89.92C99.91,86.46,97.11,83.66,93.65,83.66z"/>
			<path class="logo" d="M80.59,81.51l-5.69,4.75c0,0,4.19-0.28,6.09-0.82l6-4.8C84.85,81.03,82.65,81.29,80.59,81.51z"/>
		</g>
	</g>
</g>
</svg>
